# xmcd
#
# Track frame offsets:
#	150
#	11976
#	24422
#	37646
#	53287
#	71497
#	87972
#	99065
#	114666
#	129064
#	142136
#
# Disc length: 2063 seconds
#
# Revision: 0
# Processed by: cddbd v1.5.1PL0 Copyright (c) Steve Scherf et al.
# Submitted via: dBpowerAMP V4.0
#
DISCID=7c080d0b
DTITLE=Jason Parchert - Let me tell you a story
DYEAR=1900
DGENRE=Country
TTITLE0=Let Me Tell You A Story
TTITLE1=Keep It Simple
TTITLE2=That's What Old Glory Means To Me
TTITLE3=Daddy Was
TTITLE4=Brooke and Me
TTITLE5=If Wishes Were Horses
TTITLE6=Nobody Wants Her More Than Me
TTITLE7=And I Wanted You To Know
TTITLE8=A Bible and a Pack of Cigarettes
TTITLE9=Tiny Footsteps
TTITLE10=The Greatest Story Ever Told
EXTD=
EXTT0=
EXTT1=
EXTT2=
EXTT3=
EXTT4=
EXTT5=
EXTT6=
EXTT7=
EXTT8=
EXTT9=
EXTT10=
PLAYORDER=
